<?xml version="1.0" encoding="UTF-8" standalone="no"?>
<svg
   xmlns:dc="http://purl.org/dc/elements/1.1/"
   xmlns:cc="http://creativecommons.org/ns#"
   xmlns:rdf="http://www.w3.org/1999/02/22-rdf-syntax-ns#"
   xmlns:svg="http://www.w3.org/2000/svg"
   xmlns="http://www.w3.org/2000/svg"
   xmlns:sodipodi="http://sodipodi.sourceforge.net/DTD/sodipodi-0.dtd"
   xmlns:inkscape="http://www.inkscape.org/namespaces/inkscape"
   id="Layer_1"
   data-name="Layer 1"
   viewBox="0 0 593.41 226.98"
   version="1.1"
   sodipodi:docname="Neurogears Box Lens Logo GC v2-11.svg"
   inkscape:version="0.92.3 (2405546, 2018-03-11)">
  <metadata
     id="metadata39">
    <rdf:RDF>
      <cc:Work
         rdf:about="">
        <dc:format>image/svg+xml</dc:format>
        <dc:type
           rdf:resource="http://purl.org/dc/dcmitype/StillImage" />
        <dc:title></dc:title>
      </cc:Work>
    </rdf:RDF>
  </metadata>
  <sodipodi:namedview
     pagecolor="#000000"
     bordercolor="#666666"
     borderopacity="1"
     objecttolerance="10"
     gridtolerance="10"
     guidetolerance="10"
     inkscape:pageopacity="0"
     inkscape:pageshadow="2"
     inkscape:window-width="1920"
     inkscape:window-height="1001"
     id="namedview37"
     showgrid="false"
     inkscape:zoom="0.57127452"
     inkscape:cx="296.70499"
     inkscape:cy="113.49"
     inkscape:window-x="-9"
     inkscape:window-y="-9"
     inkscape:window-maximized="1"
     inkscape:current-layer="Layer_1" />
  <defs
     id="defs4">
    <style
       id="style2">.cls-1{fill:#fff;}</style>
  </defs>
  <polygon
     class="cls-1"
     points="289.38 69.12 303.38 69.12 306.08 71.82 306.08 105.77 315.81 105.77 315.81 68.94 308.02 60.97 289.46 60.97 283.62 67.08 283.62 60.97 274.44 60.97 274.44 105.77 284.17 105.77 284.17 74.42 289.38 69.12"
     id="polygon6" />
  <path
     class="cls-1"
     d="M345.22,71.25l2.69-2.68h17.26l2.59,2.68v7.89H345.22Zm28.3,26.92H347.91l-2.69-2.6V86.66h32.39V68.94l-7.8-8H343.27l-7.79,8V97.8l7.79,8h30.25Z"
     id="path8" />
  <polygon
     class="cls-1"
     points="421.95 97.61 407.85 97.61 405.25 94.92 405.25 60.97 395.51 60.97 395.51 97.8 403.3 105.78 421.77 105.78 427.7 99.74 427.7 105.78 436.88 105.78 436.88 60.97 427.15 60.97 427.15 92.41 421.95 97.61"
     id="polygon10" />
  <polygon
     class="cls-1"
     points="485.13 60.97 473.9 60.97 467.41 67.63 467.41 60.97 458.23 60.97 458.23 105.78 467.96 105.78 467.96 75.44 473.17 70.24 485.13 70.24 485.13 60.97"
     id="polygon12" />
  <path
     class="cls-1"
     d="M510.46,69.12h17.35l2.59,2.7v23.1l-2.59,2.7H510.46l-2.6-2.7V71.82ZM498,68.94V97.8l7.79,8h26.63l7.79-8V68.94l-7.79-8H505.82Z"
     id="path14" />
  <path
     class="cls-1"
     d="M291.53,163l-2.78-3.62,5-23.65,4.37-3.62h15.49l4.63,6-4,18.93L307.12,163Zm36.93-37.2h-7.15l-1.39,6.5-4.91-6.5H295.9l-9.19,7.6-5.93,28.21,5.93,7.71h19.11l7.15-6-3.35,15.5-4.26,3.62H279.94l-1.31,6.4h28.95l9.19-7.71Z"
     id="path16" />
  <path
     class="cls-1"
     d="M352.84,135.27l4.35-3.62h18.65l2.69,3.62-1.76,8.54H351Zm23.38,28.13H350.51l-2.87-3.54,2.13-10.2h33.3l3.44-16.25-5.85-7.6H354.88l-9.19,7.6-5.94,28.21,5.94,7.71h29.22Z"
     id="path18" />
  <path
     class="cls-1"
     d="M407.2,163.39l-2.78-3.53,1.67-8.07,4.26-3.62h22.09l-2,9.28-7.24,5.94Zm21.25,5.94h7.14l7.52-35.92-5.85-7.6h-29l-1.31,5.84h25.53l2.78,3.62-1.58,7.06H408.4l-9.09,7.7-2.5,11.59,5.93,7.71H422l7.7-6.4Z"
     id="path20" />
  <polygon
     class="cls-1"
     points="491.71 125.81 480.67 125.81 472.42 132.68 473.9 125.81 466.76 125.81 457.58 169.33 465.1 169.33 471.5 138.89 478.73 132.96 490.24 132.96 491.71 125.81"
     id="polygon22" />
  <polygon
     class="cls-1"
     points="494.96 169.33 522.98 169.33 532.08 161.62 534.21 151.42 528.37 143.71 511.48 143.71 508.69 140.09 509.71 135.27 514.07 131.65 534.86 131.65 536.06 125.81 511.66 125.81 502.48 133.41 500.62 142.51 506.46 150.12 523.35 150.12 526.15 153.73 524.84 159.86 520.57 163.39 496.17 163.39 494.96 169.33"
     id="polygon24" />
  <path
     class="cls-1"
     d="M206.23,201.59H69.3A19.66,19.66,0,0,1,49.66,182V45A19.66,19.66,0,0,1,69.3,25.38H206.23A19.67,19.67,0,0,1,225.88,45V182A19.67,19.67,0,0,1,206.23,201.59ZM69.3,32.38A12.66,12.66,0,0,0,56.66,45V182A12.66,12.66,0,0,0,69.3,194.59H206.23A12.66,12.66,0,0,0,218.88,182V45a12.66,12.66,0,0,0-12.65-12.64Zm68.47,127a45.67,45.67,0,1,1,45.68-45.68A45.33,45.33,0,0,1,137.77,159.34Zm0-84.35A38.68,38.68,0,1,0,165,86.24,38.73,38.73,0,0,0,137.77,75Z"
     id="path26" />
  <path
     class="cls-1"
     d="M69.43,178.82a19.87,19.87,0,0,1-7.64-1.55,19.33,19.33,0,0,1-12.13-18.14V45A19.66,19.66,0,0,1,69.3,25.38H183.41A19.64,19.64,0,0,1,197.3,58.91L167.51,88.7,165,86.23a38.68,38.68,0,0,0-54.7,54.69l2.47,2.48L83.19,173A19.38,19.38,0,0,1,69.43,178.82ZM69.3,32.38A12.66,12.66,0,0,0,56.66,45V159.13a12.64,12.64,0,0,0,21.58,8.94L103,143.3a45.68,45.68,0,0,1,64.4-64.4L192.35,54a12.64,12.64,0,0,0-8.94-21.58Z"
     id="path28" />
  <path
     class="cls-1"
     d="M206.23,201.59H92.13a19.64,19.64,0,0,1-13.89-33.52l29.63-29.64,2.48,2.5A38.67,38.67,0,1,0,165,86.24l-2.49-2.48L192.35,54a19.64,19.64,0,0,1,33.53,13.89V182A19.67,19.67,0,0,1,206.23,201.59ZM108,148.26,83.19,173a12.64,12.64,0,0,0,8.94,21.57h114.1A12.66,12.66,0,0,0,218.88,182V67.85a12.64,12.64,0,0,0-21.58-8.94L172.37,83.84A45.68,45.68,0,0,1,108,148.26Z"
     id="path30" />
  <path
     class="cls-1"
     d="M171.49,79.76a47.81,47.81,0,1,0,14.12,33.9A47.64,47.64,0,0,0,171.49,79.76Zm-33.72,76.08A42.17,42.17,0,1,1,180,113.66,42,42,0,0,1,137.77,155.84Z"
     id="path32" />
  <path
     class="cls-1"
     d="M175.49,75.76a53.48,53.48,0,1,0,15.78,37.9A53.31,53.31,0,0,0,175.49,75.76Zm-37.72,80.08A42.17,42.17,0,1,1,180,113.66,42,42,0,0,1,137.77,155.84Z"
     id="path34" />
</svg>
